name ./resultDataOpenSim/trcMotMarkerGrf/sub09/grf-15-05.mot
datacolumns 19
datarows 27
range 1.46400000 1.56800000
endheader

                time	     ground_force_vx	     ground_force_vy	     ground_force_vz	     ground_force_px	     ground_force_py	     ground_force_pz	   l_ground_force_vx	   l_ground_force_vy	   l_ground_force_vz	   l_ground_force_px	   l_ground_force_py	   l_ground_force_pz	     ground_torque_x	     ground_torque_y	     ground_torque_z	   l_ground_torque_x	   l_ground_torque_y	   l_ground_torque_z	
          1.46400000	        -24.00760462	        486.09269439	         -6.33330024	          1.13024879	          0.00000000	          0.03400086	          0.00000000	          0.00000000	          0.00000000	          0.00000000	          0.00000000	          0.00000000	          0.00000000	          2.18102855	          0.00000000	          0.00000000	          0.00000000	          0.00000000	
          1.46800000	        -22.81509270	        479.44336549	         -5.96708119	          1.13112071	          0.00000000	          0.03355723	          0.00000000	          0.00000000	          0.00000000	          0.00000000	          0.00000000	          0.00000000	          0.00000000	          2.20024941	          0.00000000	          0.00000000	          0.00000000	          0.00000000	
          1.47200000	        -22.46314249	        472.93239620	         -6.97467667	          1.13208383	          0.00000000	          0.03316727	          0.00000000	          0.00000000	          0.00000000	          0.00000000	          0.00000000	          0.00000000	          0.00000000	          2.06253427	          0.00000000	          0.00000000	          0.00000000	          0.00000000	
          1.47600000	        -22.57555199	        466.55165438	         -9.00742968	          1.13310619	          0.00000000	          0.03283244	          0.00000000	          0.00000000	          0.00000000	          0.00000000	          0.00000000	          0.00000000	          0.00000000	          1.80246762	          0.00000000	          0.00000000	          0.00000000	          0.00000000	
          1.48000000	        -22.69743214	        460.32158275	        -11.54682301	          1.13411814	          0.00000000	          0.03253770	          0.00000000	          0.00000000	          0.00000000	          0.00000000	          0.00000000	          0.00000000	          0.00000000	          1.47653722	          0.00000000	          0.00000000	          0.00000000	          0.00000000	
          1.48400000	        -22.43223267	        454.28899515	        -14.01001727	          1.13503446	          0.00000000	          0.03225720	          0.00000000	          0.00000000	          0.00000000	          0.00000000	          0.00000000	          0.00000000	          0.00000000	          1.15324474	          0.00000000	          0.00000000	          0.00000000	          0.00000000	
          1.48800000	        -21.54060601	        448.49159429	        -15.86687145	          1.13579884	          0.00000000	          0.03197110	          0.00000000	          0.00000000	          0.00000000	          0.00000000	          0.00000000	          0.00000000	          0.00000000	          0.90055454	          0.00000000	          0.00000000	          0.00000000	          0.00000000	
          1.49200000	        -19.98738188	        442.94456454	        -16.72939614	          1.13640082	          0.00000000	          0.03166618	          0.00000000	          0.00000000	          0.00000000	          0.00000000	          0.00000000	          0.00000000	          0.00000000	          0.77276456	          0.00000000	          0.00000000	          0.00000000	          0.00000000	
          1.49600000	        -17.93593149	        437.66595374	        -16.41041489	          1.13686461	          0.00000000	          0.03132909	          0.00000000	          0.00000000	          0.00000000	          0.00000000	          0.00000000	          0.00000000	          0.00000000	          0.79974990	          0.00000000	          0.00000000	          0.00000000	          0.00000000	
          1.50000000	        -15.69132166	        432.69858036	        -14.95262264	          1.13724056	          0.00000000	          0.03094796	          0.00000000	          0.00000000	          0.00000000	          0.00000000	          0.00000000	          0.00000000	          0.00000000	          0.98138568	          0.00000000	          0.00000000	          0.00000000	          0.00000000	
          1.50400000	        -13.60461666	        428.09709132	        -12.61335321	          1.13757619	          0.00000000	          0.03051977	          0.00000000	          0.00000000	          0.00000000	          0.00000000	          0.00000000	          0.00000000	          0.00000000	          1.28853652	          0.00000000	          0.00000000	          0.00000000	          0.00000000	
          1.50800000	        -11.97244415	        423.89548262	         -9.80251169	          1.13792913	          0.00000000	          0.03005312	          0.00000000	          0.00000000	          0.00000000	          0.00000000	          0.00000000	          0.00000000	          0.00000000	          1.66993362	          0.00000000	          0.00000000	          0.00000000	          0.00000000	
          1.51200000	        -10.96902142	        420.09473914	         -6.99551642	          1.13835910	          0.00000000	          0.02956371	          0.00000000	          0.00000000	          0.00000000	          0.00000000	          0.00000000	          0.00000000	          0.00000000	          2.06267335	          0.00000000	          0.00000000	          0.00000000	          0.00000000	
          1.51600000	        -10.60783622	        416.68611536	         -4.64343875	          1.13889943	          0.00000000	          0.02908161	          0.00000000	          0.00000000	          0.00000000	          0.00000000	          0.00000000	          0.00000000	          0.00000000	          2.40376560	          0.00000000	          0.00000000	          0.00000000	          0.00000000	
          1.52000000	        -10.72594768	        413.67421583	         -3.09406849	          1.13953021	          0.00000000	          0.02863303	          0.00000000	          0.00000000	          0.00000000	          0.00000000	          0.00000000	          0.00000000	          0.00000000	          2.64088569	          0.00000000	          0.00000000	          0.00000000	          0.00000000	
          1.52400000	        -11.01169290	        411.06536451	         -2.53861716	          1.14016977	          0.00000000	          0.02823014	          0.00000000	          0.00000000	          0.00000000	          0.00000000	          0.00000000	          0.00000000	          0.00000000	          2.74116279	          0.00000000	          0.00000000	          0.00000000	          0.00000000	
          1.52800000	        -11.08896766	        408.83820152	         -2.98572987	          1.14075253	          0.00000000	          0.02787847	          0.00000000	          0.00000000	          0.00000000	          0.00000000	          0.00000000	          0.00000000	          0.00000000	          2.69688288	          0.00000000	          0.00000000	          0.00000000	          0.00000000	
          1.53200000	        -10.63499139	        406.94539526	         -4.26436037	          1.14124367	          0.00000000	          0.02758013	          0.00000000	          0.00000000	          0.00000000	          0.00000000	          0.00000000	          0.00000000	          0.00000000	          2.52682777	          0.00000000	          0.00000000	          0.00000000	          0.00000000	
          1.53600000	         -9.47738260	        405.35843240	         -6.06738171	          1.14163333	          0.00000000	          0.02733061	          0.00000000	          0.00000000	          0.00000000	          0.00000000	          0.00000000	          0.00000000	          0.00000000	          2.27239878	          0.00000000	          0.00000000	          0.00000000	          0.00000000	
          1.54000000	         -7.63235589	        404.09842203	         -8.02263940	          1.14192057	          0.00000000	          0.02711905	          0.00000000	          0.00000000	          0.00000000	          0.00000000	          0.00000000	          0.00000000	          0.00000000	          1.98896943	          0.00000000	          0.00000000	          0.00000000	          0.00000000	
          1.54400000	         -5.28327415	        403.21538306	         -9.76212085	          1.14211533	          0.00000000	          0.02693139	          0.00000000	          0.00000000	          0.00000000	          0.00000000	          0.00000000	          0.00000000	          0.00000000	          1.73448428	          0.00000000	          0.00000000	          0.00000000	          0.00000000	
          1.54800000	         -2.71617962	        402.75699375	        -10.98079431	          1.14226607	          0.00000000	          0.02675569	          0.00000000	          0.00000000	          0.00000000	          0.00000000	          0.00000000	          0.00000000	          0.00000000	          1.55822991	          0.00000000	          0.00000000	          0.00000000	          0.00000000	
          1.55200000	         -0.23395747	        402.77028946	        -11.48589213	          1.14243970	          0.00000000	          0.02658314	          0.00000000	          0.00000000	          0.00000000	          0.00000000	          0.00000000	          0.00000000	          0.00000000	          1.49241596	          0.00000000	          0.00000000	          0.00000000	          0.00000000	
          1.55600000	          1.92626998	        403.31820522	        -11.22531855	          1.14266338	          0.00000000	          0.02640672	          0.00000000	          0.00000000	          0.00000000	          0.00000000	          0.00000000	          0.00000000	          0.00000000	          1.54793543	          0.00000000	          0.00000000	          0.00000000	          0.00000000	
          1.56000000	          3.64512115	        404.46670058	        -10.28645483	          1.14291240	          0.00000000	          0.02621975	          0.00000000	          0.00000000	          0.00000000	          0.00000000	          0.00000000	          0.00000000	          0.00000000	          1.71422919	          0.00000000	          0.00000000	          0.00000000	          0.00000000	
          1.56400000	          4.93472650	        406.24671599	         -8.87406141	          1.14315178	          0.00000000	          0.02601972	          0.00000000	          0.00000000	          0.00000000	          0.00000000	          0.00000000	          0.00000000	          0.00000000	          1.96235364	          0.00000000	          0.00000000	          0.00000000	          0.00000000	
          1.56800000	          5.93012324	        408.64384971	         -7.27453528	          1.14336166	          0.00000000	          0.02581460	          0.00000000	          0.00000000	          0.00000000	          0.00000000	          0.00000000	          0.00000000	          0.00000000	          2.25035121	          0.00000000	          0.00000000	          0.00000000	          0.00000000	
